<svg width="196" height="117" viewBox="0 0 196 117" fill="none" xmlns="http://www.w3.org/2000/svg">
<circle cx="136.5" cy="136.5" r="136.5" fill="#0EC645"/>
<path d="M75.0867 60.4567C75.0015 59.5973 74.6357 58.9297 73.9894 58.4538C73.3431 57.978 72.466 57.7401 71.358 57.7401C70.6052 57.7401 69.9695 57.8466 69.4511 58.0597C68.9326 58.2656 68.5349 58.5533 68.2579 58.9226C67.988 59.2919 67.8531 59.7109 67.8531 60.1797C67.8389 60.5703 67.9205 60.9112 68.0981 61.2024C68.2828 61.4936 68.5349 61.7457 68.8545 61.9588C69.1741 62.1648 69.5434 62.3459 69.9624 62.5021C70.3815 62.6513 70.8289 62.7791 71.3048 62.8857L73.265 63.3544C74.2167 63.5675 75.0903 63.8516 75.8857 64.2067C76.6812 64.5618 77.3701 64.9986 77.9525 65.517C78.5349 66.0355 78.9859 66.6463 79.3055 67.3494C79.6322 68.0526 79.7991 68.8587 79.8062 69.7678C79.7991 71.103 79.4582 72.2607 78.7835 73.2408C78.1159 74.2138 77.1499 74.9702 75.8857 75.5099C74.6286 76.0426 73.1123 76.3089 71.3367 76.3089C69.5754 76.3089 68.0413 76.0391 66.7345 75.4993C65.4347 74.9595 64.4191 74.1605 63.6876 73.1023C62.9632 72.0369 62.5832 70.7195 62.5477 69.1499H67.0115C67.0612 69.8814 67.2707 70.4922 67.64 70.9822C68.0164 71.4652 68.5171 71.831 69.1421 72.0795C69.7742 72.321 70.488 72.4418 71.2835 72.4418C72.0647 72.4418 72.743 72.3281 73.3183 72.1009C73.9007 71.8736 74.3517 71.5575 74.6713 71.1527C74.9909 70.7479 75.1507 70.2827 75.1507 69.7571C75.1507 69.267 75.0051 68.8551 74.7139 68.5213C74.4298 68.1875 74.0107 67.9034 73.4568 67.669C72.9099 67.4347 72.2387 67.2216 71.4433 67.0298L69.0676 66.4332C67.2281 65.9858 65.7757 65.2862 64.7103 64.3345C63.645 63.3828 63.1159 62.1009 63.123 60.4886C63.1159 59.1676 63.4674 58.0135 64.1776 57.0263C64.895 56.0391 65.8786 55.2685 67.1286 54.7145C68.3786 54.1605 69.7991 53.8835 71.39 53.8835C73.0093 53.8835 74.4227 54.1605 75.6301 54.7145C76.8445 55.2685 77.7892 56.0391 78.4639 57.0263C79.1386 58.0135 79.4866 59.157 79.5079 60.4567H75.0867ZM82.8238 76V59.6364H87.3621V76H82.8238ZM85.1036 57.527C84.4289 57.527 83.8501 57.3033 83.3671 56.8558C82.8912 56.4013 82.6533 55.858 82.6533 55.2259C82.6533 54.6009 82.8912 54.0646 83.3671 53.6172C83.8501 53.1626 84.4289 52.9354 85.1036 52.9354C85.7783 52.9354 86.3536 53.1626 86.8295 53.6172C87.3124 54.0646 87.5539 54.6009 87.5539 55.2259C87.5539 55.858 87.3124 56.4013 86.8295 56.8558C86.3536 57.3033 85.7783 57.527 85.1036 57.527ZM98.3698 82.4773C96.8996 82.4773 95.6389 82.2749 94.5878 81.87C93.5438 81.4723 92.7128 80.929 92.0949 80.2401C91.477 79.5511 91.0757 78.777 90.8911 77.9176L95.0885 77.353C95.2164 77.6797 95.4188 77.9851 95.6958 78.2692C95.9727 78.5533 96.3385 78.7805 96.7931 78.951C97.2547 79.1286 97.8158 79.2173 98.4763 79.2173C99.4635 79.2173 100.277 78.9759 100.916 78.4929C101.562 78.017 101.885 77.218 101.885 76.0959V73.1023H101.694C101.495 73.5568 101.196 73.9865 100.799 74.3913C100.401 74.7962 99.8896 75.1264 99.2646 75.3821C98.6396 75.6378 97.8939 75.7656 97.0274 75.7656C95.7987 75.7656 94.6801 75.4815 93.6716 74.9134C92.6702 74.3381 91.8712 73.4609 91.2746 72.282C90.6851 71.0959 90.3904 69.5973 90.3904 67.7862C90.3904 65.9325 90.6922 64.3842 91.2959 63.1413C91.8996 61.8984 92.7021 60.968 93.7036 60.3501C94.7121 59.7322 95.8165 59.4233 97.0168 59.4233C97.933 59.4233 98.7 59.5795 99.3179 59.892C99.9358 60.1974 100.433 60.581 100.809 61.0426C101.193 61.4972 101.488 61.9446 101.694 62.3849H101.864V59.6364H106.37V76.1598C106.37 77.5518 106.03 78.7166 105.348 79.6541C104.666 80.5916 103.721 81.2947 102.514 81.7635C101.314 82.2393 99.9323 82.4773 98.3698 82.4773ZM98.4656 72.3565C99.1972 72.3565 99.8151 72.1754 100.319 71.8132C100.831 71.4439 101.221 70.9183 101.491 70.2365C101.768 69.5476 101.907 68.7237 101.907 67.7649C101.907 66.8061 101.772 65.9751 101.502 65.272C101.232 64.5618 100.841 64.0114 100.33 63.6207C99.8186 63.2301 99.1972 63.0348 98.4656 63.0348C97.7199 63.0348 97.0914 63.2372 96.58 63.642C96.0686 64.0398 95.6816 64.5937 95.4188 65.304C95.156 66.0142 95.0246 66.8345 95.0246 67.7649C95.0246 68.7095 95.156 69.5263 95.4188 70.2152C95.6887 70.897 96.0757 71.4261 96.58 71.8026C97.0914 72.1719 97.7199 72.3565 98.4656 72.3565ZM114.52 66.5398V76H109.982V59.6364H114.307V62.5234H114.499C114.861 61.5717 115.468 60.8189 116.321 60.2649C117.173 59.7038 118.206 59.4233 119.421 59.4233C120.557 59.4233 121.548 59.6719 122.393 60.169C123.238 60.6662 123.895 61.3764 124.364 62.2997C124.833 63.2159 125.067 64.3097 125.067 65.581V76H120.529V66.3906C120.536 65.3892 120.28 64.608 119.762 64.0469C119.243 63.4787 118.53 63.1946 117.62 63.1946C117.01 63.1946 116.47 63.326 116.001 63.5888C115.54 63.8516 115.177 64.2351 114.915 64.7393C114.659 65.2365 114.527 65.8366 114.52 66.5398ZM149.149 54.1818H153.762V68.3509C153.762 69.9418 153.382 71.3338 152.622 72.527C151.869 73.7202 150.815 74.6506 149.458 75.3182C148.102 75.9787 146.521 76.3089 144.717 76.3089C142.906 76.3089 141.323 75.9787 139.966 75.3182C138.609 74.6506 137.555 73.7202 136.802 72.527C136.049 71.3338 135.673 69.9418 135.673 68.3509V54.1818H140.286V67.9567C140.286 68.7876 140.467 69.5263 140.829 70.1726C141.198 70.8189 141.717 71.3267 142.384 71.696C143.052 72.0653 143.83 72.25 144.717 72.25C145.612 72.25 146.39 72.0653 147.051 71.696C147.718 71.3267 148.233 70.8189 148.595 70.1726C148.965 69.5263 149.149 68.7876 149.149 67.9567V54.1818ZM157.472 82.1364V59.6364H161.947V62.3849H162.149C162.348 61.9446 162.636 61.4972 163.012 61.0426C163.396 60.581 163.893 60.1974 164.503 59.892C165.121 59.5795 165.888 59.4233 166.805 59.4233C167.998 59.4233 169.099 59.7358 170.107 60.3608C171.116 60.9787 171.922 61.9126 172.525 63.1626C173.129 64.4055 173.431 65.9645 173.431 67.8395C173.431 69.6648 173.136 71.206 172.547 72.4631C171.964 73.7131 171.169 74.6612 170.16 75.3075C169.159 75.9467 168.037 76.2663 166.794 76.2663C165.913 76.2663 165.164 76.1207 164.546 75.8295C163.935 75.5384 163.435 75.1726 163.044 74.7322C162.653 74.2848 162.355 73.8338 162.149 73.3793H162.011V82.1364H157.472ZM161.915 67.8182C161.915 68.7912 162.05 69.6399 162.32 70.3643C162.589 71.0888 162.98 71.6534 163.491 72.0582C164.003 72.456 164.624 72.6548 165.356 72.6548C166.094 72.6548 166.719 72.4524 167.231 72.0476C167.742 71.6357 168.129 71.0675 168.392 70.343C168.662 69.6115 168.797 68.7699 168.797 67.8182C168.797 66.8736 168.665 66.0426 168.403 65.3253C168.14 64.608 167.753 64.0469 167.241 63.642C166.73 63.2372 166.101 63.0348 165.356 63.0348C164.617 63.0348 163.992 63.2301 163.481 63.6207C162.976 64.0114 162.589 64.5653 162.32 65.2827C162.05 66 161.915 66.8452 161.915 67.8182Z" fill="white"/>
<line x1="61" y1="87.5" x2="175" y2="87.5" stroke="white"/>
</svg>
