<svg width="114" height="35" viewBox="0 0 114 35" fill="none" xmlns="http://www.w3.org/2000/svg">
<path d="M15.021 8.86612C14.9215 7.86352 14.4948 7.08463 13.7408 6.52947C12.9867 5.97431 11.9634 5.69673 10.6708 5.69673C9.7925 5.69673 9.0509 5.82102 8.44602 6.0696C7.84115 6.3099 7.37713 6.64548 7.05398 7.07635C6.73911 7.50722 6.58168 7.99609 6.58168 8.54297C6.5651 8.9987 6.66039 9.39643 6.86754 9.73615C7.08298 10.0759 7.37713 10.37 7.75 10.6186C8.12287 10.8589 8.55374 11.0702 9.04261 11.2525C9.53149 11.4265 10.0535 11.5756 10.6087 11.6999L12.8956 12.2468C14.0059 12.4954 15.0251 12.8268 15.9531 13.2411C16.8812 13.6554 17.6849 14.165 18.3643 14.7699C19.0438 15.3748 19.57 16.0874 19.9428 16.9077C20.324 17.728 20.5187 18.6684 20.527 19.729C20.5187 21.2868 20.121 22.6374 19.3338 23.7809C18.5549 24.9161 17.428 25.7985 15.9531 26.4283C14.4865 27.0497 12.7174 27.3604 10.646 27.3604C8.59103 27.3604 6.80125 27.0456 5.27663 26.4158C3.7603 25.7861 2.5754 24.8539 1.72195 23.6193C0.876776 22.3764 0.433475 20.8394 0.392045 19.0082H5.59979C5.65779 19.8616 5.90223 20.5742 6.3331 21.146C6.77225 21.7094 7.35642 22.1361 8.08558 22.4261C8.82304 22.7079 9.65578 22.8487 10.5838 22.8487C11.4953 22.8487 12.2866 22.7161 12.9577 22.451C13.6372 22.1858 14.1634 21.8171 14.5362 21.3448C14.9091 20.8725 15.0955 20.3298 15.0955 19.7166C15.0955 19.1449 14.9257 18.6643 14.5859 18.2749C14.2545 17.8854 13.7656 17.554 13.1193 17.2805C12.4813 17.0071 11.6983 16.7585 10.7702 16.5348L7.99858 15.8388C5.85251 15.3168 4.15803 14.5006 2.91513 13.3903C1.67223 12.2799 1.05492 10.7843 1.06321 8.90341C1.05492 7.36221 1.46508 6.01574 2.29368 4.86399C3.13056 3.71224 4.27817 2.81321 5.73651 2.1669C7.19484 1.5206 8.85204 1.19744 10.7081 1.19744C12.5973 1.19744 14.2462 1.5206 15.6548 2.1669C17.0717 2.81321 18.1738 3.71224 18.9609 4.86399C19.7481 6.01574 20.1541 7.34979 20.179 8.86612H15.021ZM24.0475 27V7.90909H29.3422V27H24.0475ZM26.7073 5.44815C25.9201 5.44815 25.2448 5.18714 24.6814 4.66513C24.1262 4.13482 23.8486 3.50095 23.8486 2.76349C23.8486 2.03433 24.1262 1.40874 24.6814 0.886719C25.2448 0.356415 25.9201 0.0912629 26.7073 0.0912629C27.4945 0.0912629 28.1656 0.356415 28.7208 0.886719C29.2842 1.40874 29.566 2.03433 29.566 2.76349C29.566 3.50095 29.2842 4.13482 28.7208 4.66513C28.1656 5.18714 27.4945 5.44815 26.7073 5.44815ZM42.1845 34.5568C40.4693 34.5568 38.9985 34.3207 37.7722 33.8484C36.5542 33.3844 35.5847 32.7505 34.8638 31.9467C34.1429 31.143 33.6748 30.2398 33.4593 29.2372L38.3564 28.5785C38.5055 28.9596 38.7417 29.3159 39.0648 29.6474C39.388 29.9788 39.8147 30.244 40.345 30.4428C40.8836 30.65 41.5382 30.7536 42.3088 30.7536C43.4605 30.7536 44.4093 30.4718 45.155 29.9084C45.909 29.3532 46.286 28.421 46.286 27.1119V23.6193H46.0623C45.8303 24.1496 45.4823 24.6509 45.0183 25.1232C44.5543 25.5955 43.9577 25.9808 43.2285 26.2791C42.4993 26.5774 41.6293 26.7266 40.6184 26.7266C39.185 26.7266 37.8799 26.3951 36.7033 25.7322C35.535 25.0611 34.6028 24.0378 33.9068 22.6623C33.219 21.2785 32.8752 19.5302 32.8752 17.4173C32.8752 15.2546 33.2273 13.4483 33.9316 11.9982C34.6359 10.5482 35.5723 9.46271 36.7406 8.74183C37.9172 8.02095 39.2057 7.66051 40.606 7.66051C41.6749 7.66051 42.5698 7.8428 43.2907 8.20739C44.0115 8.56368 44.5916 9.01113 45.0307 9.54972C45.4782 10.08 45.822 10.602 46.0623 11.1158H46.2612V7.90909H51.5186V27.1864C51.5186 28.8105 51.1209 30.1694 50.3255 31.2631C49.53 32.3569 48.428 33.1772 47.0194 33.7241C45.619 34.2792 44.0074 34.5568 42.1845 34.5568ZM42.2963 22.7493C43.1498 22.7493 43.8707 22.538 44.459 22.1154C45.0556 21.6845 45.5113 21.0714 45.8262 20.2759C46.1493 19.4722 46.3109 18.511 46.3109 17.3924C46.3109 16.2738 46.1535 15.3043 45.8386 14.484C45.5237 13.6554 45.068 13.0133 44.4714 12.5575C43.8748 12.1018 43.1498 11.8739 42.2963 11.8739C41.4263 11.8739 40.693 12.1101 40.0964 12.5824C39.4998 13.0464 39.0482 13.6927 38.7417 14.5213C38.4351 15.3499 38.2818 16.3069 38.2818 17.3924C38.2818 18.4944 38.4351 19.4473 38.7417 20.2511C39.0565 21.0465 39.5081 21.6638 40.0964 22.103C40.693 22.5339 41.4263 22.7493 42.2963 22.7493ZM61.0268 15.9631V27H55.7321V7.90909H60.7782V11.2773H61.002C61.4245 10.167 62.133 9.28871 63.1273 8.6424C64.1216 7.98781 65.3272 7.66051 66.7441 7.66051C68.0699 7.66051 69.2258 7.95052 70.2118 8.53054C71.1979 9.11056 71.9643 9.93916 72.5112 11.0163C73.0581 12.0852 73.3315 13.3613 73.3315 14.8445V27H68.0368V15.7891C68.045 14.6207 67.7467 13.7093 67.1419 13.0547C66.537 12.3918 65.7042 12.0604 64.6436 12.0604C63.931 12.0604 63.3013 12.2137 62.7544 12.5202C62.2159 12.8268 61.7933 13.2743 61.4867 13.8626C61.1884 14.4426 61.0351 15.1428 61.0268 15.9631ZM91.0863 1.54545V27H85.7045V1.54545H91.0863ZM100.709 15.9631V27H95.4147V7.90909H100.461V11.2773H100.685C101.107 10.167 101.816 9.28871 102.81 8.6424C103.804 7.98781 105.01 7.66051 106.427 7.66051C107.753 7.66051 108.908 7.95052 109.894 8.53054C110.88 9.11056 111.647 9.93916 112.194 11.0163C112.741 12.0852 113.014 13.3613 113.014 14.8445V27H107.719V15.7891C107.728 14.6207 107.429 13.7093 106.824 13.0547C106.22 12.3918 105.387 12.0604 104.326 12.0604C103.614 12.0604 102.984 12.2137 102.437 12.5202C101.898 12.8268 101.476 13.2743 101.169 13.8626C100.871 14.4426 100.718 15.1428 100.709 15.9631Z" fill="url(#paint0_linear_47_166)"/>
<defs>
<linearGradient id="paint0_linear_47_166" x1="69.5" y1="-7" x2="69.5" y2="40" gradientUnits="userSpaceOnUse">
<stop stop-color="#0EC645"/>
<stop offset="1" stop-opacity="0"/>
<stop offset="1" stop-color="#0EC645"/>
</linearGradient>
</defs>
</svg>
