<svg width="183" height="109" viewBox="0 0 183 109" fill="none" xmlns="http://www.w3.org/2000/svg">
<circle cx="136.5" cy="136.5" r="136.5" fill="#0EC645"/>
<path d="M72.9862 52.4567C72.9009 51.5973 72.5352 50.9297 71.8888 50.4538C71.2425 49.978 70.3654 49.7401 69.2575 49.7401C68.5046 49.7401 67.869 49.8466 67.3505 50.0597C66.832 50.2656 66.4343 50.5533 66.1573 50.9226C65.8874 51.2919 65.7525 51.7109 65.7525 52.1797C65.7383 52.5703 65.82 52.9112 65.9975 53.2024C66.1822 53.4936 66.4343 53.7457 66.7539 53.9588C67.0735 54.1648 67.4428 54.3459 67.8619 54.5021C68.2809 54.6513 68.7283 54.7791 69.2042 54.8857L71.1644 55.3544C72.1161 55.5675 72.9897 55.8516 73.7852 56.2067C74.5806 56.5618 75.2695 56.9986 75.8519 57.517C76.4343 58.0355 76.8853 58.6463 77.2049 59.3494C77.5316 60.0526 77.6985 60.8587 77.7056 61.7678C77.6985 63.103 77.3576 64.2607 76.6829 65.2408C76.0153 66.2138 75.0494 66.9702 73.7852 67.5099C72.5281 68.0426 71.0117 68.3089 69.2362 68.3089C67.4748 68.3089 65.9407 68.0391 64.6339 67.4993C63.3342 66.9595 62.3185 66.1605 61.587 65.1023C60.8626 64.0369 60.4826 62.7195 60.4471 61.1499H64.9109C64.9606 61.8814 65.1701 62.4922 65.5394 62.9822C65.9158 63.4652 66.4165 63.831 67.0415 64.0795C67.6737 64.321 68.3874 64.4418 69.1829 64.4418C69.9641 64.4418 70.6424 64.3281 71.2177 64.1009C71.8001 63.8736 72.2511 63.5575 72.5707 63.1527C72.8903 62.7479 73.0501 62.2827 73.0501 61.7571C73.0501 61.267 72.9045 60.8551 72.6133 60.5213C72.3292 60.1875 71.9102 59.9034 71.3562 59.669C70.8093 59.4347 70.1381 59.2216 69.3427 59.0298L66.967 58.4332C65.1275 57.9858 63.6751 57.2862 62.6097 56.3345C61.5444 55.3828 61.0153 54.1009 61.0224 52.4886C61.0153 51.1676 61.3668 50.0135 62.0771 49.0263C62.7944 48.0391 63.7781 47.2685 65.0281 46.7145C66.2781 46.1605 67.6985 45.8835 69.2894 45.8835C70.9087 45.8835 72.3221 46.1605 73.5295 46.7145C74.744 47.2685 75.6886 48.0391 76.3633 49.0263C77.038 50.0135 77.386 51.157 77.4073 52.4567H72.9862ZM80.7232 68V51.6364H85.2615V68H80.7232ZM83.003 49.527C82.3283 49.527 81.7495 49.3033 81.2665 48.8558C80.7907 48.4013 80.5527 47.858 80.5527 47.2259C80.5527 46.6009 80.7907 46.0646 81.2665 45.6172C81.7495 45.1626 82.3283 44.9354 83.003 44.9354C83.6777 44.9354 84.253 45.1626 84.7289 45.6172C85.2118 46.0646 85.4533 46.6009 85.4533 47.2259C85.4533 47.858 85.2118 48.4013 84.7289 48.8558C84.253 49.3033 83.6777 49.527 83.003 49.527ZM96.2692 74.4773C94.799 74.4773 93.5384 74.2749 92.4872 73.87C91.4432 73.4723 90.6122 72.929 89.9943 72.2401C89.3764 71.5511 88.9751 70.777 88.7905 69.9176L92.9879 69.353C93.1158 69.6797 93.3182 69.9851 93.5952 70.2692C93.8722 70.5533 94.2379 70.7805 94.6925 70.951C95.1541 71.1286 95.7152 71.2173 96.3757 71.2173C97.3629 71.2173 98.1761 70.9759 98.8153 70.4929C99.4616 70.017 99.7848 69.218 99.7848 68.0959V65.1023H99.593C99.3942 65.5568 99.0959 65.9865 98.6982 66.3913C98.3004 66.7962 97.7891 67.1264 97.1641 67.3821C96.5391 67.6378 95.7933 67.7656 94.9268 67.7656C93.6982 67.7656 92.5795 67.4815 91.571 66.9134C90.5696 66.3381 89.7706 65.4609 89.174 64.282C88.5845 63.0959 88.2898 61.5973 88.2898 59.7862C88.2898 57.9325 88.5916 56.3842 89.1953 55.1413C89.799 53.8984 90.6016 52.968 91.603 52.3501C92.6115 51.7322 93.7159 51.4233 94.9162 51.4233C95.8324 51.4233 96.5994 51.5795 97.2173 51.892C97.8352 52.1974 98.3324 52.581 98.7088 53.0426C99.0923 53.4972 99.3871 53.9446 99.593 54.3849H99.7635V51.6364H104.27V68.1598C104.27 69.5518 103.929 70.7166 103.247 71.6541C102.565 72.5916 101.621 73.2947 100.413 73.7635C99.2131 74.2393 97.8317 74.4773 96.2692 74.4773ZM96.3651 64.3565C97.0966 64.3565 97.7145 64.1754 98.2188 63.8132C98.7301 63.4439 99.1207 62.9183 99.3906 62.2365C99.6676 61.5476 99.8061 60.7237 99.8061 59.7649C99.8061 58.8061 99.6712 57.9751 99.4013 57.272C99.1314 56.5618 98.7408 56.0114 98.2294 55.6207C97.718 55.2301 97.0966 55.0348 96.3651 55.0348C95.6193 55.0348 94.9908 55.2372 94.4794 55.642C93.968 56.0398 93.581 56.5937 93.3182 57.304C93.0554 58.0142 92.924 58.8345 92.924 59.7649C92.924 60.7095 93.0554 61.5263 93.3182 62.2152C93.5881 62.897 93.9751 63.4261 94.4794 63.8026C94.9908 64.1719 95.6193 64.3565 96.3651 64.3565ZM112.42 58.5398V68H107.881V51.6364H112.207V54.5234H112.398C112.761 53.5717 113.368 52.8189 114.22 52.2649C115.072 51.7038 116.106 51.4233 117.32 51.4233C118.457 51.4233 119.447 51.6719 120.293 52.169C121.138 52.6662 121.795 53.3764 122.263 54.2997C122.732 55.2159 122.967 56.3097 122.967 57.581V68H118.428V58.3906C118.435 57.3892 118.18 56.608 117.661 56.0469C117.143 55.4787 116.429 55.1946 115.52 55.1946C114.909 55.1946 114.369 55.326 113.901 55.5888C113.439 55.8516 113.077 56.2351 112.814 56.7393C112.558 57.2365 112.427 57.8366 112.42 58.5398ZM138.185 46.1818V68H133.572V46.1818H138.185ZM146.433 58.5398V68H141.895V51.6364H146.22V54.5234H146.412C146.774 53.5717 147.382 52.8189 148.234 52.2649C149.086 51.7038 150.119 51.4233 151.334 51.4233C152.47 51.4233 153.461 51.6719 154.306 52.169C155.151 52.6662 155.808 53.3764 156.277 54.2997C156.746 55.2159 156.98 56.3097 156.98 57.581V68H152.442V58.3906C152.449 57.3892 152.193 56.608 151.675 56.0469C151.156 55.4787 150.443 55.1946 149.534 55.1946C148.923 55.1946 148.383 55.326 147.914 55.5888C147.453 55.8516 147.09 56.2351 146.828 56.7393C146.572 57.2365 146.441 57.8366 146.433 58.5398Z" fill="white"/>
<line x1="59" y1="79.5" x2="159" y2="79.5" stroke="white"/>
</svg>
