<svg width="338" height="91" viewBox="0 0 338 91" fill="none" xmlns="http://www.w3.org/2000/svg">
<mask id="mask0_16_788" style="mask-type:alpha" maskUnits="userSpaceOnUse" x="0" y="0" width="338" height="91">
<mask id="path-1-inside-1_16_788" fill="white">
<path fill-rule="evenodd" clip-rule="evenodd" d="M16.6678 0C7.83129 0 0.667847 7.16344 0.667847 16V75C0.667847 83.8366 7.83127 91 16.6678 91H331.238H337.432C337.746 91 338 90.7458 338 90.4321C338 90.2281 337.89 90.0414 337.717 89.9331C333.931 87.5599 331.238 81.4886 331.238 74.3735V16C331.238 7.16344 324.074 0 315.238 0H16.6678Z"/>
</mask>
<path d="M337.717 89.9331L337.186 90.7804L337.186 90.7804L337.717 89.9331ZM1.66785 16C1.66785 7.71573 8.38358 1 16.6678 1V-1C7.27901 -1 -0.332153 6.61116 -0.332153 16H1.66785ZM1.66785 75V16H-0.332153V75H1.66785ZM16.6678 90C8.38356 90 1.66785 83.2843 1.66785 75H-0.332153C-0.332153 84.3888 7.27898 92 16.6678 92V90ZM331.238 90H16.6678V92H331.238V90ZM331.238 92H337.432V90H331.238V92ZM337.432 92C338.298 92 339 91.298 339 90.4321H337C337 90.1935 337.194 90 337.432 90V92ZM339 90.4321C339 89.8622 338.694 89.3652 338.248 89.0857L337.186 90.7804C337.086 90.7177 337 90.5941 337 90.4321H339ZM338.248 89.0858C334.876 86.9718 332.238 81.3181 332.238 74.3735H330.238C330.238 81.6591 332.986 88.148 337.186 90.7804L338.248 89.0858ZM330.238 16V74.3735H332.238V16H330.238ZM315.238 1C323.522 1 330.238 7.71573 330.238 16H332.238C332.238 6.61116 324.627 -1 315.238 -1V1ZM16.6678 1H315.238V-1H16.6678V1Z" fill="black" mask="url(#path-1-inside-1_16_788)"/>
</mask>
<g mask="url(#mask0_16_788)">
<rect x="2.64014" y="-0.226379" width="334.88" height="91.8621" fill="#E8E9EB"/>
</g>
</svg>
