<svg width="15" height="12" viewBox="0 0 15 12" fill="none" xmlns="http://www.w3.org/2000/svg">
<path fill-rule="evenodd" clip-rule="evenodd" d="M14.7556 1.42275C15.0814 1.09774 15.0814 0.569391 14.7556 0.244382C14.4306 -0.0814607 13.9031 -0.0814607 13.5772 0.244382L4.78197 9.03964L2.02272 6.28122C1.69772 5.95538 1.16937 5.95538 0.844358 6.28122C0.518515 6.60707 0.518515 7.13458 0.844358 7.45959L4.15112 10.7672C4.16445 10.7814 4.17695 10.7955 4.19112 10.8089C4.35363 10.9722 4.56697 11.053 4.7803 11.053C4.82031 11.053 4.86031 11.0505 4.90031 11.0447C5.07281 11.0205 5.23948 10.9422 5.37199 10.8089C5.38616 10.7955 5.39949 10.7814 5.41199 10.7664L14.7556 1.42275Z" fill="#D84D4D"/>
</svg>
